<svg width="512" height="512" viewBox="0 0 512 512" fill="none" xmlns="http://www.w3.org/2000/svg">
<g clip-path="url(#clip0_339_1053)">
<path d="M101.397 318.177L413.847 213.873C407.605 174.827 403.155 148.742 398.001 128.835C392.447 107.424 388.045 101.695 386.316 99.7106C380.292 92.817 372.791 87.3692 364.371 83.7721C361.938 82.7319 355.119 80.3156 333.062 81.6438C309.724 83.052 279.087 87.8207 230.571 95.502C182.071 103.183 151.45 108.128 128.833 113.985C107.432 119.538 101.685 123.955 99.7006 125.683C92.8177 131.716 87.3755 139.205 83.774 147.622C82.7335 150.055 80.3165 156.872 81.6451 178.939C83.0537 202.271 87.8237 232.916 95.5069 281.42C97.6518 295.022 99.5886 307.184 101.397 318.177Z" fill="url(#paint0_linear_339_1053)"/>
<path d="M15.2495 294.126C0.395294 200.287 -7.04781 153.367 9.0549 115.697C17.4491 96.0505 30.1639 78.5476 46.2544 64.489C77.0992 37.5567 124.015 30.1315 217.846 15.2651C311.709 0.38274 358.624 -7.04244 396.32 9.05612C415.961 17.4509 433.458 30.1623 447.509 46.2461C474.465 77.099 481.892 124.018 496.746 217.873C511.616 311.712 519.043 358.648 502.941 396.302C494.552 415.948 481.843 433.451 465.757 447.51C434.912 474.458 387.981 481.884 294.134 496.75C200.303 511.616 153.371 519.041 115.707 502.943C96.0666 494.548 78.5703 481.836 64.518 465.753C37.5628 434.9 30.1357 387.981 15.2655 294.126H15.2495ZM180.774 460.776C205.905 459.256 238.27 454.183 286.178 446.598C334.102 439.013 366.42 433.828 390.814 427.507C414.424 421.378 425.308 415.409 432.335 409.264C442.673 400.226 450.842 388.975 456.233 376.347C459.915 367.769 462.236 355.575 460.763 331.22C459.242 306.096 454.168 273.722 446.581 225.811C438.994 177.899 433.824 145.558 427.501 121.186C421.371 97.5662 415.384 86.6845 409.254 79.6594C400.219 69.3196 388.971 61.148 376.344 55.7516C367.764 52.071 355.567 49.7506 331.205 51.2228C306.075 52.7431 273.725 57.8159 225.801 65.4011C177.893 73.0023 145.56 78.1711 121.182 84.4921C97.5557 90.6211 86.6872 96.6061 79.6603 102.735C69.3168 111.772 61.143 123.023 55.7463 135.652C52.0808 144.23 49.7598 156.424 51.2325 180.78C52.7531 205.92 57.8112 238.277 65.4144 286.188C73.0015 334.1 78.1717 366.441 84.4943 390.813C90.6249 414.433 96.5954 425.315 102.742 432.34C111.776 442.679 123.025 450.851 135.652 456.247C144.231 459.928 156.412 462.248 180.79 460.776H180.774Z" fill="url(#paint1_linear_339_1053)"/>
</g>
<defs>
<linearGradient id="paint0_linear_339_1053" x1="200.559" y1="98.3701" x2="242.814" y2="362.307" gradientUnits="userSpaceOnUse">
<stop stop-color="#66E3FF"/>
<stop offset="1" stop-color="#7064F9"/>
</linearGradient>
<linearGradient id="paint1_linear_339_1053" x1="200.559" y1="-0.00132278" x2="281.856" y2="507.808" gradientUnits="userSpaceOnUse">
<stop stop-color="#66E3FF"/>
<stop offset="1" stop-color="#7064F9"/>
</linearGradient>
<clipPath id="clip0_339_1053">
<rect width="512" height="512" fill="white"/>
</clipPath>
</defs>
</svg>
