<svg width="512" height="512" viewBox="0 0 512 512" fill="none" xmlns="http://www.w3.org/2000/svg">
<path d="M19.4779 152.783H492.521C501.742 152.783 509.217 160.258 509.217 169.478V342C509.217 351.221 501.742 358.696 492.521 358.696H19.4779C10.2571 358.696 2.78223 351.221 2.78223 342V169.478C2.78223 160.258 10.2571 152.783 19.4779 152.783Z" fill="white"/>
<path d="M19.4783 150H492.522C503.279 150 512 158.721 512 169.478V342C512 352.758 503.279 361.478 492.522 361.478H19.4783C8.72071 361.478 0 352.758 0 342V169.478C0 158.721 8.72071 150 19.4783 150ZM19.4783 155.565C11.7943 155.565 5.56522 161.794 5.56522 169.478V342C5.56522 349.684 11.7943 355.913 19.4783 355.913H492.522C500.206 355.913 506.435 349.684 506.435 342V169.478C506.435 161.794 500.206 155.565 492.522 155.565H19.4783Z" fill="#EAEAEA"/>
<path d="M272.695 190.203L272.694 275.099L303.878 243.921L319.618 259.662L261.976 317.3L203.607 258.931L219.348 243.19L250.433 274.275L250.434 190.203H272.695Z" fill="black"/>
<path d="M72.1622 312.979V247.232L112.417 287.489L152.977 246.932V312.315H175.237V193.192L112.418 256.008L49.9014 193.487V312.979H72.1622Z" fill="black"/>
<path d="M447.847 186.651L463.587 202.392L416.438 249.539L462.137 295.24L446.396 310.981L400.695 265.282L354.995 310.981L339.254 295.24L384.95 249.539L337.804 202.392L353.544 186.651L400.695 233.797L447.847 186.651Z" fill="#F9AC00"/>
</svg>
